<mxfile host="65bd71144e">
    <diagram id="XXd6pPZVZHxNrgmQ0Vfv" name="Page-1">
        <mxGraphModel dx="1923" dy="815" grid="0" gridSize="10" guides="1" tooltips="1" connect="1" arrows="1" fold="1" page="0" pageScale="1" pageWidth="850" pageHeight="1100" math="0" shadow="0">
            <root>
                <mxCell id="0"/>
                <mxCell id="1" parent="0"/>
                <mxCell id="2" value="TourBloc" style="shape=umlLifeline;perimeter=lifelinePerimeter;whiteSpace=wrap;html=1;container=1;collapsible=0;recursiveResize=0;outlineConnect=0;rounded=1;shadow=0;comic=0;labelBackgroundColor=none;strokeWidth=1;fontFamily=Verdana;fontSize=12;align=center;" vertex="1" parent="1">
                    <mxGeometry x="302" y="78" width="100" height="580" as="geometry"/>
                </mxCell>
                <mxCell id="3" value="" style="html=1;points=[];perimeter=orthogonalPerimeter;rounded=0;shadow=0;comic=0;labelBackgroundColor=none;strokeWidth=1;fontFamily=Verdana;fontSize=12;align=center;" vertex="1" parent="2">
                    <mxGeometry x="45" y="100" width="10" height="412" as="geometry"/>
                </mxCell>
                <mxCell id="59" style="edgeStyle=none;html=1;dashed=1;" edge="1" parent="1">
                    <mxGeometry relative="1" as="geometry">
                        <mxPoint x="511.5" y="312" as="sourcePoint"/>
                        <mxPoint x="351.5" y="312" as="targetPoint"/>
                    </mxGeometry>
                </mxCell>
                <mxCell id="60" value="POI's" style="edgeLabel;html=1;align=center;verticalAlign=middle;resizable=0;points=[];" vertex="1" connectable="0" parent="59">
                    <mxGeometry x="0.1688" y="-1" relative="1" as="geometry">
                        <mxPoint x="15" y="-9" as="offset"/>
                    </mxGeometry>
                </mxCell>
                <mxCell id="4" value="ServicioLLM" style="shape=umlLifeline;perimeter=lifelinePerimeter;whiteSpace=wrap;html=1;container=1;collapsible=0;recursiveResize=0;outlineConnect=0;rounded=1;shadow=0;comic=0;labelBackgroundColor=none;strokeWidth=1;fontFamily=Verdana;fontSize=12;align=center;" vertex="1" parent="1">
                    <mxGeometry x="462" y="78" width="100" height="580" as="geometry"/>
                </mxCell>
                <mxCell id="5" value="" style="html=1;points=[];perimeter=orthogonalPerimeter;rounded=0;shadow=0;comic=0;labelBackgroundColor=none;strokeWidth=1;fontFamily=Verdana;fontSize=12;align=center;" vertex="1" parent="4">
                    <mxGeometry x="45" y="120" width="10" height="114" as="geometry"/>
                </mxCell>
                <mxCell id="6" value="Google Places" style="shape=umlLifeline;perimeter=lifelinePerimeter;whiteSpace=wrap;html=1;container=1;collapsible=0;recursiveResize=0;outlineConnect=0;rounded=1;shadow=0;comic=0;labelBackgroundColor=none;strokeWidth=1;fontFamily=Verdana;fontSize=12;align=center;" vertex="1" parent="1">
                    <mxGeometry x="602" y="78" width="100" height="580" as="geometry"/>
                </mxCell>
                <mxCell id="12" value="" style="html=1;points=[];perimeter=orthogonalPerimeter;rounded=0;shadow=0;comic=0;labelBackgroundColor=none;strokeWidth=1;fontFamily=Verdana;fontSize=12;align=center;" vertex="1" parent="6">
                    <mxGeometry x="45" y="277" width="10" height="63" as="geometry"/>
                </mxCell>
                <mxCell id="7" value="Optimization_service" style="shape=umlLifeline;perimeter=lifelinePerimeter;whiteSpace=wrap;html=1;container=1;collapsible=0;recursiveResize=0;outlineConnect=0;rounded=1;shadow=0;comic=0;labelBackgroundColor=none;strokeWidth=1;fontFamily=Verdana;fontSize=12;align=center;" vertex="1" parent="1">
                    <mxGeometry x="742" y="77" width="141" height="579" as="geometry"/>
                </mxCell>
                <mxCell id="65" value="" style="html=1;points=[];perimeter=orthogonalPerimeter;rounded=0;shadow=0;comic=0;labelBackgroundColor=none;strokeWidth=1;fontFamily=Verdana;fontSize=12;align=center;" vertex="1" parent="7">
                    <mxGeometry x="65.5" y="370" width="10" height="56" as="geometry"/>
                </mxCell>
                <mxCell id="8" value="MapBloc" style="shape=umlLifeline;perimeter=lifelinePerimeter;whiteSpace=wrap;html=1;container=1;collapsible=0;recursiveResize=0;outlineConnect=0;rounded=1;shadow=0;comic=0;labelBackgroundColor=none;strokeWidth=1;fontFamily=Verdana;fontSize=12;align=center;" vertex="1" parent="1">
                    <mxGeometry x="904" y="78" width="100" height="580" as="geometry"/>
                </mxCell>
                <mxCell id="70" value="" style="html=1;points=[];perimeter=orthogonalPerimeter;rounded=0;shadow=0;comic=0;labelBackgroundColor=none;strokeWidth=1;fontFamily=Verdana;fontSize=12;align=center;" vertex="1" parent="8">
                    <mxGeometry x="45" y="460" width="10" height="56" as="geometry"/>
                </mxCell>
                <mxCell id="9" value="MapScreen" style="shape=umlLifeline;perimeter=lifelinePerimeter;whiteSpace=wrap;html=1;container=1;collapsible=0;recursiveResize=0;outlineConnect=0;rounded=1;shadow=0;comic=0;labelBackgroundColor=none;strokeWidth=1;fontFamily=Verdana;fontSize=12;align=center;" vertex="1" parent="1">
                    <mxGeometry x="1058" y="78" width="100" height="580" as="geometry"/>
                </mxCell>
                <mxCell id="73" value="" style="html=1;points=[];perimeter=orthogonalPerimeter;rounded=0;shadow=0;comic=0;labelBackgroundColor=none;strokeWidth=1;fontFamily=Verdana;fontSize=12;align=center;" vertex="1" parent="9">
                    <mxGeometry x="45" y="516" width="10" height="56" as="geometry"/>
                </mxCell>
                <mxCell id="10" value="TourSelectionScreen" style="shape=umlLifeline;perimeter=lifelinePerimeter;whiteSpace=wrap;html=1;container=1;collapsible=0;recursiveResize=0;outlineConnect=0;rounded=1;shadow=0;comic=0;labelBackgroundColor=none;strokeWidth=1;fontFamily=Verdana;fontSize=12;align=center;" vertex="1" parent="1">
                    <mxGeometry x="100" y="77" width="138" height="583" as="geometry"/>
                </mxCell>
                <mxCell id="11" value="" style="html=1;points=[];perimeter=orthogonalPerimeter;rounded=0;shadow=0;comic=0;labelBackgroundColor=none;strokeWidth=1;fontFamily=Verdana;fontSize=12;align=center;" vertex="1" parent="10">
                    <mxGeometry x="66" y="93" width="10" height="45" as="geometry"/>
                </mxCell>
                <mxCell id="25" value="loadTourEvent()" style="html=1;verticalAlign=bottom;endArrow=block;entryX=0;entryY=0;labelBackgroundColor=none;fontFamily=Verdana;fontSize=12;edgeStyle=elbowEdgeStyle;elbow=vertical;" edge="1" parent="1" source="11" target="3">
                    <mxGeometry relative="1" as="geometry">
                        <mxPoint x="220" y="190" as="sourcePoint"/>
                    </mxGeometry>
                </mxCell>
                <mxCell id="26" value="fetchLLMData()" style="html=1;verticalAlign=bottom;endArrow=block;entryX=0;entryY=0;labelBackgroundColor=none;fontFamily=Verdana;fontSize=12;edgeStyle=elbowEdgeStyle;elbow=vertical;" edge="1" parent="1" source="3" target="5">
                    <mxGeometry relative="1" as="geometry">
                        <mxPoint x="432" y="198" as="sourcePoint"/>
                    </mxGeometry>
                </mxCell>
                <mxCell id="57" style="edgeStyle=none;html=1;" edge="1" parent="1" source="56" target="10">
                    <mxGeometry relative="1" as="geometry">
                        <Array as="points">
                            <mxPoint x="120" y="171"/>
                        </Array>
                    </mxGeometry>
                </mxCell>
                <mxCell id="58" value="loadTourEvent()" style="edgeLabel;html=1;align=center;verticalAlign=middle;resizable=0;points=[];" vertex="1" connectable="0" parent="57">
                    <mxGeometry x="0.0547" y="1" relative="1" as="geometry">
                        <mxPoint x="-1" y="-9" as="offset"/>
                    </mxGeometry>
                </mxCell>
                <mxCell id="56" value="Usuario" style="shape=umlLifeline;participant=umlActor;perimeter=lifelinePerimeter;whiteSpace=wrap;html=1;container=1;collapsible=0;recursiveResize=0;verticalAlign=top;spacingTop=36;outlineConnect=0;" vertex="1" parent="1">
                    <mxGeometry x="2" y="59" width="23" height="606" as="geometry"/>
                </mxCell>
                <mxCell id="61" style="edgeStyle=none;html=1;" edge="1" parent="1">
                    <mxGeometry relative="1" as="geometry">
                        <mxPoint x="357" y="357" as="sourcePoint"/>
                        <mxPoint x="647" y="357" as="targetPoint"/>
                    </mxGeometry>
                </mxCell>
                <mxCell id="62" value="searchPlace(POI's)" style="edgeLabel;html=1;align=center;verticalAlign=middle;resizable=0;points=[];" vertex="1" connectable="0" parent="61">
                    <mxGeometry x="0.4207" relative="1" as="geometry">
                        <mxPoint x="-123" y="-13" as="offset"/>
                    </mxGeometry>
                </mxCell>
                <mxCell id="63" style="edgeStyle=none;html=1;dashed=1;" edge="1" parent="1">
                    <mxGeometry relative="1" as="geometry">
                        <mxPoint x="647" y="415.5" as="sourcePoint"/>
                        <mxPoint x="351.5" y="415.5" as="targetPoint"/>
                    </mxGeometry>
                </mxCell>
                <mxCell id="64" value="enrichedPOI's" style="edgeLabel;html=1;align=center;verticalAlign=middle;resizable=0;points=[];" vertex="1" connectable="0" parent="63">
                    <mxGeometry x="0.3401" y="1" relative="1" as="geometry">
                        <mxPoint x="128" y="-13" as="offset"/>
                    </mxGeometry>
                </mxCell>
                <mxCell id="66" style="edgeStyle=none;html=1;" edge="1" parent="1">
                    <mxGeometry relative="1" as="geometry">
                        <mxPoint x="357" y="446" as="sourcePoint"/>
                        <mxPoint x="807.5" y="446" as="targetPoint"/>
                    </mxGeometry>
                </mxCell>
                <mxCell id="67" value="optimizedRoute()" style="edgeLabel;html=1;align=center;verticalAlign=middle;resizable=0;points=[];" vertex="1" connectable="0" parent="66">
                    <mxGeometry x="-0.5782" y="-1" relative="1" as="geometry">
                        <mxPoint x="-13" y="-5" as="offset"/>
                    </mxGeometry>
                </mxCell>
                <mxCell id="68" style="edgeStyle=none;html=1;dashed=1;" edge="1" parent="1" source="65">
                    <mxGeometry relative="1" as="geometry">
                        <mxPoint x="358" y="504" as="targetPoint"/>
                    </mxGeometry>
                </mxCell>
                <mxCell id="69" value="OptimizedRoute" style="edgeLabel;html=1;align=center;verticalAlign=middle;resizable=0;points=[];" vertex="1" connectable="0" parent="68">
                    <mxGeometry x="-0.455" relative="1" as="geometry">
                        <mxPoint x="37" y="-12" as="offset"/>
                    </mxGeometry>
                </mxCell>
                <mxCell id="71" style="edgeStyle=none;html=1;entryX=-0.5;entryY=0.321;entryDx=0;entryDy=0;entryPerimeter=0;" edge="1" parent="1">
                    <mxGeometry relative="1" as="geometry">
                        <mxPoint x="357" y="539.9760000000001" as="sourcePoint"/>
                        <mxPoint x="944" y="539.9760000000001" as="targetPoint"/>
                    </mxGeometry>
                </mxCell>
                <mxCell id="72" value="DrawEcoCityTour(EcoCityTour)" style="edgeLabel;html=1;align=center;verticalAlign=middle;resizable=0;points=[];" vertex="1" connectable="0" parent="71">
                    <mxGeometry x="-0.7956" y="1" relative="1" as="geometry">
                        <mxPoint x="23" y="-11" as="offset"/>
                    </mxGeometry>
                </mxCell>
                <mxCell id="74" style="edgeStyle=none;html=1;entryX=-0.1;entryY=0.018;entryDx=0;entryDy=0;entryPerimeter=0;" edge="1" parent="1" source="70" target="73">
                    <mxGeometry relative="1" as="geometry"/>
                </mxCell>
                <mxCell id="75" value="updateMap()" style="edgeLabel;html=1;align=center;verticalAlign=middle;resizable=0;points=[];" vertex="1" connectable="0" parent="74">
                    <mxGeometry x="-0.3286" y="-1" relative="1" as="geometry">
                        <mxPoint x="18" y="-12" as="offset"/>
                    </mxGeometry>
                </mxCell>
            </root>
        </mxGraphModel>
    </diagram>
</mxfile>